<svg xmlns="http://www.w3.org/2000/svg" viewBox="0 0 551.67 115.3"><path d="M20.88,313.42c-9-9-13.57-20.61-13.57-34.58s4.52-25.4,13.57-34.45,20.48-13.7,34.18-13.7c10.11,0,18.75,2.26,26.07,6.92v10.11a47.39,47.39,0,0,0-25.93-7.85,36.22,36.22,0,0,0-27,11.17c-7.31,7.31-10.91,16.62-10.91,27.8s3.59,20.61,10.91,27.93,16.49,11,27.26,11,19.95-3.06,27.66-9.31v10.24C75.54,324.2,66.23,327,55.06,327,41.36,327,30.05,322.47,20.88,313.42Z" transform="translate(-7.31 -230.7)"/><path d="M110.65,325.39h-9.58V232.3h9.58V271a33,33,0,0,1,25.67-11.44c16,0,24.47,9.84,24.47,26.73v39.1h-9.58v-37c0-16.89-10.37-19.82-18.22-19.82a23.11,23.11,0,0,0-12.9,4.12,28.74,28.74,0,0,0-9.44,9.31v43.36Z" transform="translate(-7.31 -230.7)"/><path d="M183.8,321.4c-4.65-3.86-7-9-7-15.69a18.8,18.8,0,0,1,7.45-15.56c5.05-3.86,11.3-5.72,18.89-5.72a45.07,45.07,0,0,1,23.14,6.25V284.3c0-10.77-7-16.09-21.15-16.09a36.64,36.64,0,0,0-21,6.52v-9.31c6.25-3.86,13.83-5.85,23-5.85,17.16,0,28.73,8.25,28.73,23.81v26.47c0,4.92,2.39,8,6.12,8a8.09,8.09,0,0,0,3.72-.8v7.45c-1.33.93-3.46,1.46-6.38,1.46-6.25,0-11-3.33-12.1-10.24C220.64,323.27,212,327,201.22,327A27.61,27.61,0,0,1,183.8,321.4Zm42.43-13.83v-8.91a37.73,37.73,0,0,0-20.88-6.38c-11.7,0-19,4.92-19,12.9,0,8.64,7.58,13.17,17.56,13.17A29.65,29.65,0,0,0,226.22,307.57Z" transform="translate(-7.31 -230.7)"/><path d="M268.65,307.17V269.54H253.49v-8.38h15.16V241.34h9.58v19.82H300.7v8.38H278.23v34.71c0,5.05.8,8.65,2.53,10.64s4.66,3.06,8.65,3.06a20.9,20.9,0,0,0,10.51-2.66v8.78c-2.79,2-7.18,2.93-13.17,2.93C274.5,327,268.65,319.28,268.65,307.17Z" transform="translate(-7.31 -230.7)"/><path d="M319.85,234.29a6.77,6.77,0,0,1,9.58,9.58A6.77,6.77,0,0,1,319.85,234.29Zm0,91.1V261.16h9.58v64.24h-9.58Z" transform="translate(-7.31 -230.7)"/><path d="M346.85,325.39l27-33.91L350,261.16h11.3L379.7,284l18.35-22.87h11.17l-23.94,30.06,27,34.18H401l-21.41-26.87-21.68,26.87h-11Z" transform="translate(-7.31 -230.7)"/><path d="M426.92,314.36a7,7,0,1,1,0,9.84A7.07,7.07,0,0,1,426.92,314.36Z" transform="translate(-7.31 -230.7)"/><path d="M460.3,234.29a6.77,6.77,0,0,1,9.58,9.58A6.77,6.77,0,0,1,460.3,234.29Zm0,91.1V261.16h9.58v64.24H460.3Z" transform="translate(-7.31 -230.7)" style="fill:#177ecc"/><path d="M524.27,259.56c10.24,0,18.49,3.33,25,10a34,34,0,0,1,0,47.61c-6.52,6.52-14.76,9.84-25,9.84s-18.49-3.32-25-9.84a34,34,0,0,1,0-47.61C505.78,262.89,514,259.56,524.27,259.56Zm17.82,15.83c-4.65-4.79-10.64-7.18-17.82-7.18s-13.17,2.39-17.82,7.18a26.22,26.22,0,0,0,0,35.78c4.66,4.79,10.64,7.18,17.82,7.18s13.17-2.39,17.82-7.18A26.22,26.22,0,0,0,542.09,275.39Z" transform="translate(-7.31 -230.7)" style="fill:#177ecc"/><rect x="1.11" y="105.58" width="86.13" height="9.72" style="fill:#177ecc"/><rect x="87.23" y="105.58" width="86.13" height="9.72" style="fill:#1bc13a"/><rect x="173.36" y="105.58" width="86.13" height="9.72" style="fill:#e8cc00"/><rect x="259.49" y="105.58" width="86.13" height="9.72" style="fill:#e05a3b"/><rect x="345.61" y="105.58" width="86.13" height="9.72" style="fill:#b81ff9"/></svg>